HIERARCHY
ROOT Hips
{
	OFFSET 0.00000 0.00000 0.00000
	CHANNELS 6 Xposition Yposition Zposition Zrotation Yrotation Xrotation 
	JOINT LHipJoint
	{
		OFFSET 0 0 0
		CHANNELS 3 Zrotation Yrotation Xrotation
		JOINT LeftHip
		{
			OFFSET 1.64549 -1.70879 0.84566
			CHANNELS 3 Zrotation Yrotation Xrotation
			JOINT LeftKnee
			{
				OFFSET 2.24963 -6.18082 0.00000
				CHANNELS 3 Zrotation Yrotation Xrotation
				JOINT LeftAnkle
				{
					OFFSET 2.71775 -7.46697 0.00000
					CHANNELS 3 Zrotation Yrotation Xrotation
					JOINT LeftToe
					{
						OFFSET 0.18768 -0.51564 2.24737
						CHANNELS 3 Zrotation Yrotation Xrotation
						End Site
						{
							OFFSET 0.00000 -0.00000 1.15935
						}
					}
				}
			}
		}
	}
	JOINT RHipJoint
	{
		OFFSET 0 0 0
		CHANNELS 3 Zrotation Yrotation Xrotation
		JOINT RightHip
		{
			OFFSET -1.58830 -1.70879 0.84566
			CHANNELS 3 Zrotation Yrotation Xrotation
			JOINT RightKnee
			{
				OFFSET -2.25006 -6.18201 0.00000
				CHANNELS 3 Zrotation Yrotation Xrotation
				JOINT RightAnkle
				{
					OFFSET -2.72829 -7.49593 0.00000
					CHANNELS 3 Zrotation Yrotation Xrotation
					JOINT RightToe
					{
						OFFSET -0.21541 -0.59185 2.10643
						CHANNELS 3 Zrotation Yrotation Xrotation
						End Site
						{
							OFFSET -0.00000 -0.00000 1.09838
						}
					}
				}
			}
		}
	}
	JOINT lowerback
	{
		OFFSET 0 0 0
		CHANNELS 3 Zrotation Yrotation Xrotation
		JOINT Chest
		{
			OFFSET 0.03142 2.10496 -0.11038
			CHANNELS 3 Zrotation Yrotation Xrotation
			JOINT Chest2
			{
				OFFSET -0.01863 2.10897 -0.06956
				CHANNELS 3 Zrotation Yrotation Xrotation
				JOINT lowerneck
				{
					OFFSET 0 0 0
					CHANNELS 3 Zrotation Yrotation Xrotation
					JOINT Neck
					{
						OFFSET -0.02267 1.73238 0.00451
						CHANNELS 3 Zrotation Yrotation Xrotation
						JOINT Head
						{
							OFFSET -0.05808 1.54724 -0.61749
							CHANNELS 3 Zrotation Yrotation Xrotation
							End Site
							{
								OFFSET -0.01396 1.71468 -0.21082
							}
						}
					}
				}
				JOINT LeftCollar
				{
					OFFSET 0 0 0
					CHANNELS 3 Zrotation Yrotation Xrotation
					JOINT LeftShoulder
					{
						OFFSET 3.44898 0.50298 0.21920
CHANNELS 3 Zrotation Xrotation Yrotation
						JOINT LeftElbow
						{
OFFSET 0 -5.419170 -0.000000
CHANNELS 3 Zrotation Xrotation Yrotation
							JOINT LeftWrist
							{
OFFSET 0 -2.443730 0.000000
CHANNELS 3 Zrotation Xrotation Yrotation
								JOINT lhand
								{
									OFFSET 0 0 0
CHANNELS 3 Zrotation Xrotation Yrotation
									JOINT LFingers
									{
OFFSET 0 -0.727500 0.000000
CHANNELS 3 Zrotation Xrotation Yrotation
										End Site
										{
OFFSET 0 -0.586530 0.000000
										}
									}
								}
								JOINT LThumb
								{
OFFSET 0 0.000000 0.000000
CHANNELS 3 Zrotation Xrotation Yrotation
									End Site
									{
OFFSET 0 -0.595490 0.595490
									}
								}
							}
						}
					}
				}
				JOINT RightCollar
				{
					OFFSET 0 0 0
					CHANNELS 3 Zrotation Yrotation Xrotation
					JOINT RightShoulder
					{
						OFFSET -3.23015 0.55830 0.31051
CHANNELS 3 Zrotation Xrotation Yrotation
						JOINT RightElbow
						{
OFFSET 0 -5.589760 0.000140
CHANNELS 3 Zrotation Xrotation Yrotation
							JOINT RightWrist
							{
OFFSET 0 -2.480600 0.000000
CHANNELS 3 Zrotation Xrotation Yrotation
								JOINT rhand
								{
									OFFSET 0 0 0
CHANNELS 3 Zrotation Xrotation Yrotation
									JOINT RFingers
									{
OFFSET 0 -0.816010 0.000000
CHANNELS 3 Zrotation Xrotation Yrotation
										End Site
										{
OFFSET 0 -0.657890 0.000000
										}
									}
								}
								JOINT RThumb
								{
OFFSET 0 0.000000 0.000000
CHANNELS 3 Zrotation Xrotation Yrotation
									End Site
									{
OFFSET 0 -0.667930 0.667930
									}
								}
							}
						}
					}
				}
			}
		}
	}
}
MOTION
Frames: 5
Frame Time: 0.008333333333333333
4.693900 16.036600 -32.983500 -0.333100 -3.701400 21.709200 0.000000 0.000000 0.000000 -23.999300 2.824000 -29.114900 7.938600 16.073900 52.341200 0.471100 7.369900 -17.711600 3.268100 -11.117000 -32.675400 0.000000 0.000000 0.000000 23.711900 15.701900 -43.814400 -5.260100 -13.670900 41.934800 -6.968300 -16.064800 -56.087900 -4.523500 -12.826200 38.721400 1.383000 0.138900 -17.121600 0.803300 -0.082100 -6.954300 0.046300 -0.059500 2.174800 -1.691600 -3.762900 -11.412300 3.276700 -6.888700 40.471800 0.575200 -2.714100 16.743300 0.000000 0.000000 0.000000 1.806900 14.710800 -12.166700 19.322400 -29.817400 5.190200 -1.974400 1.281800 -17.559300 0.000000 0.000000 0.000000 -7.125000 0.000000 0.000000 -27.671100 45.530400 0.392800 0.000000 0.000000 0.000000 -6.825200 12.390400 23.815100 -12.165400 -20.052200 -2.158700 -3.707300 -10.261200 -14.374900 0.000000 0.000000 0.000000 7.125000 0.000000 -0.000000 16.093400 15.926400 11.529100
4.719782 16.048605 -33.027830 0.236109 -2.648386 21.794117 0.000000 0.000000 0.000000 -23.787349 0.611880 -28.719736 7.340731 15.612176 50.151566 0.746503 7.325382 -20.582901 3.313394 -11.185705 -32.909042 0.000000 0.000000 0.000000 22.609758 16.423112 -44.021861 -5.296648 -13.710245 42.088982 -7.825350 -15.974238 -58.726768 -4.708807 -13.048158 39.548968 0.602857 -0.356071 -16.659882 0.916228 -0.605207 -6.974492 0.512298 -0.305902 1.917087 -1.811566 -3.784745 -12.035021 3.336400 -6.916371 40.570580 0.604041 -2.718892 16.967467 0.000000 0.000000 0.000000 1.660572 14.383998 -12.313916 19.457899 -29.983628 5.257702 -1.926473 1.488025 -17.212174 0.000000 0.000000 0.000000 -7.125000 0.000000 0.000000 -27.470356 45.227862 0.167502 0.000000 0.000000 0.000000 -7.233761 12.184386 24.194216 -12.086461 -19.934192 -2.131685 -3.440466 -10.650759 -14.775360 0.000000 0.000000 0.000000 7.125000 0.000000 0.000000 16.242584 15.552126 11.782730
4.747410 16.060029 -33.058768 0.672468 -1.837111 21.106904 0.000000 0.000000 0.000000 -23.496963 -0.953129 -27.543794 6.754683 15.121649 47.940136 1.139401 7.265353 -24.012897 3.369606 -11.270448 -33.197619 0.000000 0.000000 0.000000 21.708363 17.562083 -43.037197 -5.308954 -13.723436 42.140861 -8.776401 -15.381248 -61.347000 -5.053496 -13.443275 41.052230 0.179212 -0.541586 -16.780676 0.673265 -0.776148 -6.548927 0.462610 -0.385716 2.434494 -1.683145 -3.895632 -10.857389 3.675506 -7.198389 39.909077 0.709230 -2.805226 16.336980 0.000000 0.000000 0.000000 2.225557 14.249299 -13.139682 19.630658 -30.194734 5.344376 -1.500988 1.353115 -17.200124 0.000000 0.000000 0.000000 -7.125000 0.000000 0.000000 -27.100845 45.268826 0.194465 0.000000 0.000000 0.000000 -6.874229 12.384898 23.435895 -12.219701 -20.133352 -2.177329 -3.181568 -10.267171 -14.898982 0.000000 0.000000 0.000000 7.125000 0.000000 0.000000 16.404645 15.443990 11.950951
4.767251 16.077131 -33.122281 1.053460 -0.785875 21.032094 0.000000 0.000000 0.000000 -23.002604 -3.280059 -27.287967 6.286499 14.700154 46.120547 1.591767 7.190464 -27.367666 3.297809 -11.162263 -32.828925 0.000000 0.000000 0.000000 20.588014 19.311610 -42.555185 -5.272577 -13.684313 41.987315 -9.929214 -14.195308 -64.290030 -5.624147 -14.053875 43.453976 -0.503531 -0.923136 -15.725752 0.728685 -1.173593 -6.722484 0.849593 -0.571094 1.712486 -1.562626 -3.985501 -11.392089 3.667254 -7.387813 40.143220 0.640058 -2.847991 16.600129 0.000000 0.000000 0.000000 2.389727 14.244112 -13.563151 19.749265 -30.339072 5.404170 -1.493269 1.373453 -16.558837 0.000000 0.000000 0.000000 -7.125000 0.000000 0.000000 -26.808084 44.697252 -0.216312 0.000000 0.000000 0.000000 -7.007684 12.567248 23.226262 -12.166013 -20.053165 -2.158904 -2.876475 -10.348305 -14.883921 0.000000 0.000000 0.000000 7.125000 0.000000 0.000000 16.606338 15.470654 12.101385
4.809997 16.095195 -33.187190 0.996281 -1.428431 21.511046 0.000000 0.000000 0.000000 -22.771249 -4.699720 -27.994552 5.817438 14.248744 44.243900 1.935098 8.202714 -30.285866 3.274200 -11.125979 -32.706190 0.000000 0.000000 0.000000 20.094515 19.737116 -43.232915 -5.201007 -13.606614 41.683923 -9.713191 -14.449682 -63.749005 -5.649981 -14.079606 43.558961 -0.758823 -0.663947 -15.177311 0.667811 -0.799936 -7.087070 1.002013 -0.376782 1.033697 -1.442096 -4.068077 -11.967839 3.800645 -7.641549 40.471107 0.620584 -2.894827 16.942938 0.000000 0.000000 0.000000 2.599802 14.219986 -13.745216 19.858932 -30.471980 5.459579 -1.151277 1.358765 -16.234886 0.000000 0.000000 0.000000 -7.125000 0.000000 0.000000 -26.375585 44.447293 -0.388065 0.000000 0.000000 0.000000 -6.950625 12.895415 23.195352 -12.190846 -20.090180 -2.167405 -3.077257 -10.343163 -14.533118 0.000000 0.000000 0.000000 7.125000 0.000000 0.000000 16.498975 15.799317 11.893337
